<svg width="56" height="56" viewBox="0 0 56 56" fill="none" xmlns="http://www.w3.org/2000/svg">
<path d="M0 12C0 5.37258 5.37258 0 12 0H44C50.6274 0 56 5.37258 56 12V44C56 50.6274 50.6274 56 44 56H12C5.37258 56 0 50.6274 0 44V12Z" fill="#FFF1E9"/>
<path d="M32.5073 15.6075C32.6573 15.6741 32.7928 15.7697 32.9059 15.8887C33.019 16.0076 33.1076 16.1477 33.1666 16.301C33.2255 16.4542 33.2537 16.6175 33.2496 16.7816C33.2454 16.9458 33.209 17.1075 33.1423 17.2575L23.1423 39.7575C23.0077 40.0605 22.7582 40.2976 22.4488 40.4167C22.1394 40.5358 21.7953 40.5271 21.4923 40.3925C21.1893 40.2579 20.9521 40.0084 20.8331 39.699C20.714 39.3896 20.7227 39.0455 20.8573 38.7425L30.8573 16.2425C30.9239 16.0925 31.0195 15.957 31.1384 15.8439C31.2574 15.7308 31.3975 15.6422 31.5508 15.5832C31.704 15.5243 31.8673 15.496 32.0314 15.5002C32.1956 15.5044 32.3573 15.5408 32.5073 15.6075ZM18.8323 21.44C18.9548 21.5493 19.0545 21.6817 19.1258 21.8296C19.1971 21.9774 19.2386 22.1379 19.2478 22.3018C19.2571 22.4657 19.234 22.6298 19.1799 22.7848C19.1258 22.9398 19.0416 23.0825 18.9323 23.205L14.6748 28L18.9373 32.795C19.0463 32.9178 19.13 33.0608 19.1837 33.216C19.2375 33.3711 19.2601 33.5354 19.2503 33.6992C19.2406 33.8631 19.1986 34.0235 19.1269 34.1712C19.0552 34.3189 18.9551 34.451 18.8323 34.56C18.7095 34.669 18.5664 34.7527 18.4113 34.8065C18.2561 34.8602 18.0919 34.8828 17.928 34.873C17.7641 34.8633 17.6038 34.8214 17.4561 34.7496C17.3084 34.6779 17.1763 34.5778 17.0673 34.455L12.0673 28.83C11.8641 28.6012 11.752 28.3059 11.752 28C11.752 27.6941 11.8641 27.3988 12.0673 27.17L17.0673 21.545C17.1763 21.4222 17.3084 21.322 17.4561 21.2503C17.6038 21.1786 17.7641 21.1366 17.928 21.1269C18.0919 21.1171 18.2562 21.1397 18.4113 21.1935C18.5665 21.2472 18.7095 21.331 18.8323 21.44ZM37.1698 21.44C37.2926 21.331 37.4356 21.2472 37.5908 21.1935C37.7459 21.1397 37.9101 21.1171 38.074 21.1269C38.2379 21.1366 38.3983 21.1786 38.546 21.2503C38.6937 21.322 38.8258 21.4222 38.9348 21.545L43.9348 27.17C44.1379 27.3988 44.2501 27.6941 44.2501 28C44.2501 28.3059 44.1379 28.6012 43.9348 28.83L38.9348 34.455C38.8258 34.5778 38.6937 34.6779 38.546 34.7496C38.3983 34.8214 38.2379 34.8633 38.074 34.873C37.9101 34.8828 37.7459 34.8602 37.5908 34.8065C37.4356 34.7527 37.2926 34.669 37.1698 34.56C37.047 34.451 36.9469 34.3189 36.8752 34.1712C36.8034 34.0235 36.7615 33.8631 36.7517 33.6992C36.742 33.5354 36.7646 33.3711 36.8183 33.216C36.872 33.0608 36.9558 32.9178 37.0648 32.795L41.3273 28L37.0648 23.205C36.9558 23.0822 36.872 22.9392 36.8183 22.784C36.7645 22.6289 36.7419 22.4647 36.7516 22.3007C36.7614 22.1368 36.8033 21.9765 36.8751 21.8288C36.9468 21.6811 37.047 21.549 37.1698 21.44Z" fill="#FF7E35"/>
</svg>
